<?xml version="1.0" encoding="UTF-8" standalone="no"?>
<svg
   xmlns:dc="http://purl.org/dc/elements/1.1/"
   xmlns:cc="http://creativecommons.org/ns#"
   xmlns:rdf="http://www.w3.org/1999/02/22-rdf-syntax-ns#"
   xmlns:svg="http://www.w3.org/2000/svg"
   xmlns="http://www.w3.org/2000/svg"
   xmlns:sodipodi="http://sodipodi.sourceforge.net/DTD/sodipodi-0.dtd"
   xmlns:inkscape="http://www.inkscape.org/namespaces/inkscape"
   viewBox="0 0 226.6 233.8"
   version="1.1"
   id="svg8"
   sodipodi:docname="clock.svg"
   inkscape:version="1.0.1 (3bc2e813f5, 2020-09-07)">
  <metadata
     id="metadata14">
    <rdf:RDF>
      <cc:Work
         rdf:about="">
        <dc:format>image/svg+xml</dc:format>
        <dc:type
           rdf:resource="http://purl.org/dc/dcmitype/StillImage" />
      </cc:Work>
    </rdf:RDF>
  </metadata>
  <defs
     id="defs12" />
  <sodipodi:namedview
     pagecolor="#ffffff"
     bordercolor="#666666"
     borderopacity="1"
     objecttolerance="10"
     gridtolerance="10"
     guidetolerance="10"
     inkscape:pageopacity="0"
     inkscape:pageshadow="2"
     inkscape:window-width="1577"
     inkscape:window-height="965"
     id="namedview10"
     showgrid="false"
     inkscape:zoom="1.817793"
     inkscape:cx="-11.581867"
     inkscape:cy="155.85719"
     inkscape:window-x="0"
     inkscape:window-y="0"
     inkscape:window-maximized="0"
     inkscape:current-layer="svg8" />
  <path
     d="m 105.98223,28.634917 v -15.2725 h -5.52808 v -1.967622 c 0.74957,0 1.40544,-0.0937 2.06132,-0.187393 0.65587,-0.0937 1.31175,-0.281089 1.87393,-0.655874 0.56217,-0.281089 1.03066,-0.7495708 1.40544,-1.2180527 0.37478,-0.562177 0.65588,-1.2180513 0.74957,-1.9676217 h 1.96763 V 28.634917 Z m 8.05789,-16.771641 c 0.28108,-0.936963 0.74956,-1.686533 1.31174,-2.3424073 0.56218,-0.6558743 1.31176,-1.2180524 2.24872,-1.5928381 0.84326,-0.3747847 1.87392,-0.562177 2.99828,-0.562177 0.93696,0 1.78023,0.093698 2.62349,0.3747847 0.84327,0.2810896 1.49915,0.6558742 2.15502,1.1243561 0.56218,0.4684809 1.03066,1.1243551 1.40544,1.8739266 0.37479,0.74957 0.56218,1.592837 0.56218,2.623496 0,0.936964 -0.18739,1.78023 -0.46848,2.529801 -0.28109,0.74957 -0.65587,1.405444 -1.12436,1.967622 -0.46848,0.562179 -1.03065,1.124357 -1.68653,1.499141 -0.65587,0.468482 -1.21805,0.936964 -1.87392,1.311749 -0.65588,0.374786 -1.31176,0.74957 -1.96763,1.218052 -0.65587,0.468482 -1.21805,0.843267 -1.78023,1.218052 -0.56218,0.468481 -1.03066,0.936963 -1.40544,1.405445 -0.37478,0.468482 -0.65588,1.124356 -0.74958,1.780229 h 10.86878 v 2.248713 h -13.86706 c 0.0937,-1.218053 0.2811,-2.342409 0.65588,-3.185675 0.37478,-0.843267 0.74956,-1.686533 1.31174,-2.342408 0.56218,-0.655874 1.12436,-1.218052 1.87394,-1.78023 0.65586,-0.468482 1.40544,-0.936963 2.15501,-1.405445 0.93696,-0.562178 1.68653,-1.03066 2.34241,-1.499141 0.65587,-0.468482 1.21805,-0.936963 1.68653,-1.405444 0.46848,-0.468482 0.74957,-1.03066 1.03066,-1.592838 0.28109,-0.562178 0.37479,-1.218052 0.37479,-1.967623 0,-0.562177 -0.0937,-1.124355 -0.37479,-1.592837 -0.18739,-0.468482 -0.46848,-0.843267 -0.84327,-1.218052 -0.37478,-0.374785 -0.84326,-0.5621785 -1.31174,-0.7495708 -0.46849,-0.1873924 -1.03066,-0.2810885 -1.59284,-0.2810885 -0.74958,0 -1.40545,0.1873923 -1.87393,0.4684808 -0.56217,0.2810895 -0.93697,0.7495715 -1.31175,1.2180525 -0.37478,0.468482 -0.56218,1.03066 -0.74956,1.686534 -0.1874,0.655874 -0.1874,1.218052 -0.1874,1.873926 h -2.5298 c -0.2811,-0.936963 -0.1874,-1.967622 0.0937,-2.904586 z m 49.09686,31.294569 V 27.885347 h -5.52808 v -2.061319 c 0.74958,0 1.40544,-0.0937 2.06132,-0.187393 0.65588,-0.0937 1.31174,-0.281089 1.87392,-0.655874 0.56218,-0.28109 1.03066,-0.749571 1.40546,-1.218052 0.37478,-0.562178 0.65586,-1.218053 0.74956,-1.967623 h 1.96762 v 21.269063 h -2.5298 z m 30.35761,19.676227 c 0.28109,-0.936963 0.74957,-1.686533 1.31175,-2.342408 0.56218,-0.655874 1.31175,-1.218052 2.24871,-1.592837 0.84327,-0.374785 1.87393,-0.562178 2.99829,-0.562178 0.93696,0 1.78022,0.0937 2.62349,0.374785 0.84327,0.28109 1.49915,0.655874 2.15501,1.124356 0.56218,0.468482 1.03066,1.124356 1.40546,1.873927 0.37478,0.74957 0.56216,1.592837 0.56216,2.623497 0,0.936962 -0.18738,1.780229 -0.46848,2.529799 -0.28108,0.749571 -0.65586,1.405445 -1.12434,1.967623 -0.46849,0.562178 -1.03066,1.124356 -1.68654,1.499141 -0.65588,0.468482 -1.21806,0.936964 -1.87393,1.311749 -0.65587,0.374785 -1.31175,0.74957 -1.96762,1.218052 -0.65587,0.468482 -1.21805,0.843266 -1.78023,1.218052 -0.56218,0.468482 -1.03066,0.936963 -1.40545,1.405445 -0.37478,0.468482 -0.65587,1.124356 -0.74957,1.78023 h 10.86878 v 2.248712 h -13.96075 c 0.0937,-1.218053 0.28108,-2.342409 0.65587,-3.185676 0.37478,-0.843266 0.74957,-1.686533 1.31175,-2.342407 0.56217,-0.655874 1.12435,-1.218052 1.87392,-1.78023 0.65588,-0.468482 1.40545,-0.936963 2.15502,-1.405445 0.93696,-0.562178 1.68653,-1.030659 2.34241,-1.499141 0.65587,-0.468482 1.21805,-0.936963 1.68653,-1.405445 0.46849,-0.468481 0.74957,-1.03066 1.03066,-1.592838 0.28109,-0.562177 0.37479,-1.218051 0.37479,-1.967621 0,-0.562178 -0.0937,-1.124356 -0.37479,-1.592838 -0.18739,-0.468481 -0.46849,-0.843267 -0.84327,-1.218053 -0.37478,-0.374784 -0.84326,-0.562177 -1.31174,-0.74957 -0.46848,-0.187392 -1.03066,-0.281089 -1.59284,-0.281089 -0.74958,0 -1.40545,0.187393 -1.87393,0.468482 -0.56218,0.281089 -0.93696,0.749571 -1.31175,1.218052 -0.37478,0.468482 -0.56218,1.03066 -0.74957,1.686534 -0.18739,0.655874 -0.18739,1.218052 -0.18739,1.873926 h -2.5298 c -0.18739,-1.03066 -0.0937,-1.967622 0.18739,-2.904586 z m 17.52121,52.376248 h 0.84327 c 0.56217,0 1.03066,-0.0937 1.49914,-0.1874 0.46848,-0.0937 0.93697,-0.37478 1.31175,-0.65588 0.37478,-0.28108 0.65587,-0.65587 0.84326,-1.12435 0.1874,-0.46848 0.37479,-0.93696 0.37479,-1.49914 0,-1.12436 -0.37479,-1.96762 -1.12435,-2.5298 -0.74958,-0.56218 -1.59284,-0.84327 -2.7172,-0.84327 -0.65588,0 -1.31174,0.0937 -1.78022,0.37479 -0.46849,0.28109 -0.93698,0.56217 -1.21806,1.03066 -0.37478,0.37478 -0.56218,0.93696 -0.74958,1.49914 -0.18738,0.56217 -0.28108,1.12435 -0.28108,1.78023 h -2.5298 c 0,-1.03066 0.1874,-1.96762 0.46848,-2.81089 0.2811,-0.84327 0.74958,-1.59284 1.21806,-2.15502 0.56218,-0.56218 1.21804,-1.03066 2.06132,-1.40544 0.84326,-0.37479 1.78022,-0.46848 2.81088,-0.46848 0.93696,0 1.78023,0.0937 2.5298,0.37478 0.74957,0.28109 1.49914,0.56218 2.06132,1.03066 0.56218,0.46848 1.03066,1.03066 1.40545,1.78023 0.37478,0.74957 0.46848,1.59284 0.46848,2.5298 0,0.93696 -0.28109,1.78023 -0.84327,2.5298 -0.56218,0.74958 -1.21805,1.31175 -2.06132,1.68654 v 0.0937 c 1.31175,0.28108 2.24871,0.93696 2.90459,1.87392 0.65587,0.93696 0.93696,2.06132 0.93696,3.37307 0,1.03066 -0.18739,1.96762 -0.56218,2.81089 -0.37478,0.84327 -0.93696,1.49914 -1.59283,2.06132 -0.65588,0.56217 -1.40545,0.93696 -2.34241,1.21805 -0.93697,0.28109 -1.87393,0.37478 -2.81089,0.37478 -1.12436,0 -2.06132,-0.18739 -2.90458,-0.46848 -0.84328,-0.28108 -1.59284,-0.74957 -2.24872,-1.31174 -0.65588,-0.56218 -1.12436,-1.31175 -1.40544,-2.15502 -0.37478,-0.84327 -0.46848,-1.87393 -0.46848,-2.90459 h 2.5298 c 0,1.40545 0.46848,2.5298 1.21804,3.37307 0.74958,0.84327 1.87394,1.31175 3.37308,1.31175 0.65587,0 1.21804,-0.0937 1.78022,-0.28109 0.56218,-0.18739 1.03066,-0.46848 1.49914,-0.84327 0.46849,-0.37478 0.74958,-0.74957 1.03066,-1.31174 0.28109,-0.56218 0.37479,-1.12436 0.37479,-1.68654 0,-0.65587 -0.0937,-1.21805 -0.37479,-1.78023 -0.28108,-0.56217 -0.56217,-0.93696 -0.93696,-1.31175 -0.37478,-0.37478 -0.84326,-0.65587 -1.40544,-0.74956 -0.56218,-0.0937 -1.12436,-0.2811 -1.78024,-0.2811 -0.56217,0 -1.03066,0 -1.49914,0.0937 v -2.5298 c -0.0937,0.0937 0,0.0937 0.0937,0.0937 z m -3.18568,54.99973 v 2.24871 h -2.90458 v 4.96591 h -2.4361 v -4.96591 h -9.36963 v -2.4361 l 9.65071,-13.86706 h 2.06132 v 14.05445 z m -5.24698,-10.40029 -7.12093,10.40029 h 7.12093 z m -42.06966,34.38655 -1.12434,6.09026 0.0937,0.0937 c 0.46849,-0.56218 1.03066,-0.93697 1.78023,-1.12436 0.74957,-0.28109 1.49914,-0.37479 2.15502,-0.37479 0.93696,0 1.87393,0.1874 2.62349,0.46849 0.84327,0.28109 1.59284,0.74957 2.15502,1.40545 0.65588,0.65586 1.12436,1.40544 1.49914,2.2487 0.37478,0.84328 0.56218,1.96762 0.56218,3.18568 0,0.93696 -0.1874,1.78022 -0.46848,2.6235 -0.28109,0.84326 -0.74958,1.59284 -1.40544,2.2487 -0.65588,0.65588 -1.40545,1.21806 -2.34242,1.59284 -0.93696,0.37479 -1.96762,0.56218 -3.27937,0.56218 -0.93696,0 -1.78023,-0.0937 -2.62349,-0.37478 -0.84327,-0.2811 -1.49915,-0.65588 -2.15502,-1.12436 -0.65587,-0.46848 -1.12435,-1.12436 -1.49914,-1.87392 -0.37479,-0.74958 -0.56217,-1.59284 -0.56217,-2.6235 h 2.52979 c 0,0.56218 0.18739,1.03066 0.37479,1.49914 0.18739,0.46848 0.56218,0.84326 0.93696,1.21806 0.37479,0.37478 0.84327,0.65586 1.40545,0.84326 0.56217,0.18739 1.12435,0.28108 1.78023,0.28108 0.56217,0 1.21805,-0.0937 1.68653,-0.28108 0.56218,-0.1874 1.03066,-0.56218 1.40544,-0.93696 0.37479,-0.3748 0.74958,-0.93696 0.93697,-1.59284 0.28109,-0.65588 0.37479,-1.40544 0.37479,-2.24872 0,-0.65586 -0.0937,-1.31174 -0.37479,-1.96762 -0.28109,-0.65587 -0.56218,-1.12436 -0.93697,-1.49914 -0.37478,-0.37478 -0.93696,-0.74956 -1.49914,-1.03066 -0.56218,-0.28108 -1.21805,-0.37478 -1.96762,-0.37478 -0.84327,0 -1.59284,0.18739 -2.24871,0.56218 -0.65588,0.37478 -1.21805,0.84326 -1.68654,1.49914 l -2.15501,-0.0937 1.96762,-11.05617 h 10.49399 v 2.24872 h -8.43267 z m -44.31835,13.77335 c -0.65587,-0.56217 -1.40545,-0.84326 -2.43611,-0.84326 -1.12434,0 -1.96762,0.28109 -2.62349,0.74957 -0.65587,0.46848 -1.21805,1.21805 -1.49915,1.96763 -0.28108,0.74956 -0.65586,1.68652 -0.74956,2.62348 -0.0937,0.93698 -0.1874,1.78024 -0.28109,2.6235 l 0.0937,0.0937 c 0.56217,-0.93696 1.31175,-1.68653 2.24871,-2.15501 0.84327,-0.46849 1.87393,-0.65587 3.09198,-0.65587 1.03066,0 1.96762,0.18738 2.71719,0.56218 0.84327,0.37478 1.49914,0.84326 2.06132,1.49914 0.56218,0.65587 0.93696,1.31174 1.31175,2.15501 0.28109,0.84327 0.46848,1.78023 0.46848,2.71719 0,0.74957 -0.0937,1.59284 -0.37479,2.43611 -0.28108,0.84326 -0.65587,1.59284 -1.21804,2.24871 -0.56218,0.65587 -1.31176,1.21805 -2.15502,1.68653 -0.93696,0.46848 -2.06132,0.65588 -3.37307,0.65588 -1.59284,0 -2.81089,-0.28109 -3.84155,-0.93696 -1.03065,-0.65588 -1.68653,-1.49915 -2.24871,-2.43611 -0.56218,-1.03066 -0.84326,-2.06132 -1.03066,-3.27937 -0.1874,-1.21805 -0.28108,-2.34241 -0.28108,-3.46677 0,-1.49914 0.0937,-2.90458 0.37478,-4.21633 0.28108,-1.40545 0.65588,-2.62349 1.31174,-3.65415 0.56218,-1.03066 1.40545,-1.87394 2.43611,-2.5298 1.03066,-0.65588 2.24871,-0.93696 3.74785,-0.93696 1.78023,0 3.18568,0.46848 4.21634,1.40544 1.03065,0.93696 1.59283,2.2487 1.78023,4.02894 h -2.5298 c -0.1874,-1.03066 -0.56218,-1.78024 -1.21806,-2.34242 z m -4.59111,7.02722 c -0.56218,0.2811 -1.03066,0.56218 -1.40546,1.03066 -0.37478,0.46849 -0.65586,0.93698 -0.84326,1.49915 -0.1874,0.56217 -0.28109,1.21805 -0.28109,1.87393 0,0.65587 0.0937,1.31174 0.28109,1.87392 0.1874,0.56218 0.46848,1.12436 0.84326,1.49914 0.3748,0.37479 0.84328,0.74958 1.40546,1.03066 0.56216,0.28109 1.21804,0.37479 1.87392,0.37479 0.65588,0 1.31174,-0.0937 1.87392,-0.37479 0.56218,-0.28108 0.93696,-0.56218 1.31176,-1.03066 0.37478,-0.46848 0.65586,-0.93696 0.84326,-1.49914 0.18739,-0.56218 0.28108,-1.12436 0.28108,-1.78022 0,-0.65588 -0.0937,-1.31176 -0.28108,-1.87394 -0.1874,-0.56218 -0.46848,-1.12435 -0.74958,-1.49914 -0.37478,-0.46848 -0.84326,-0.74956 -1.31174,-1.03066 -0.46848,-0.28108 -1.12436,-0.37478 -1.87392,-0.37478 -0.84328,-0.0937 -1.40546,0.0937 -1.96762,0.28108 z M 67.941527,197.94416 c -0.936962,1.49914 -1.780229,2.99828 -2.529799,4.68482 -0.749571,1.68653 -1.311749,3.37306 -1.780231,5.1533 -0.468482,1.78022 -0.74957,3.46676 -0.843266,5.1533 h -2.81089 c 0.0937,-1.78024 0.374785,-3.56047 0.843267,-5.247 0.468482,-1.68654 1.030659,-3.37307 1.780229,-4.87221 0.749572,-1.49914 1.592838,-3.09198 2.529801,-4.49742 0.936964,-1.40545 1.967623,-2.7172 3.091979,-3.84156 H 57.260148 v -2.5298 h 13.773358 v 2.15502 c -1.124356,1.12436 -2.155015,2.34241 -3.091979,3.84155 z M 21.374459,159.24758 c 0.374785,-0.65587 0.843267,-1.21805 1.405445,-1.68653 0.562178,-0.46848 1.218052,-0.84327 1.967622,-1.03066 0.749571,-0.28109 1.499141,-0.37479 2.342408,-0.37479 1.124356,0 2.155015,0.1874 2.998283,0.46848 0.843266,0.28109 1.49914,0.74958 1.967621,1.21806 0.468482,0.46848 0.843268,1.12435 1.124356,1.78023 0.28109,0.65587 0.374786,1.31175 0.374786,1.96762 0,0.93697 -0.281089,1.87393 -0.74957,2.62349 -0.468482,0.74958 -1.218053,1.40546 -2.155016,1.78024 1.311748,0.37478 2.248712,1.03066 2.81089,1.96762 0.562177,0.93696 0.936963,2.06132 0.936963,3.37306 0,1.03066 -0.187393,1.96763 -0.562178,2.7172 -0.374785,0.84326 -0.843267,1.49914 -1.499141,2.06132 -0.655874,0.56218 -1.405445,0.93696 -2.248711,1.21805 -0.843268,0.28109 -1.780231,0.37479 -2.717194,0.37479 -1.03066,0 -1.967622,-0.0937 -2.81089,-0.37479 -0.843267,-0.28109 -1.686533,-0.65587 -2.248711,-1.21805 -0.562178,-0.56218 -1.124356,-1.21806 -1.499141,-2.06132 -0.374786,-0.84326 -0.562178,-1.78023 -0.562178,-2.81089 0,-1.21805 0.281088,-2.34241 0.936963,-3.27937 0.655874,-0.93696 1.592838,-1.59284 2.717193,-2.06132 -0.936963,-0.37478 -1.592837,-0.93696 -2.155015,-1.78023 -0.562178,-0.84327 -0.843267,-1.68653 -0.843267,-2.62349 -0.0937,-0.84328 0.0937,-1.59284 0.468482,-2.24872 z m 2.717193,15.1788 c 0.843267,0.74958 1.967623,1.12436 3.279371,1.12436 0.655874,0 1.218052,-0.0937 1.78023,-0.28109 0.562178,-0.18739 1.03066,-0.46848 1.405444,-0.84327 0.374786,-0.37478 0.655875,-0.84326 0.936964,-1.31174 0.281089,-0.46848 0.281089,-1.03066 0.281089,-1.68654 0,-0.56218 -0.0937,-1.12436 -0.374786,-1.59284 -0.281088,-0.46848 -0.562177,-0.93696 -0.936963,-1.31174 -0.374784,-0.37478 -0.843266,-0.65588 -1.405444,-0.84328 -0.562178,-0.18738 -1.124357,-0.28108 -1.686534,-0.28108 -0.655874,0 -1.218052,0.0937 -1.78023,0.28108 -0.562178,0.1874 -1.03066,0.4685 -1.405445,0.84328 -0.374785,0.37478 -0.74957,0.74956 -0.936963,1.31174 -0.187393,0.46848 -0.374785,1.03066 -0.374785,1.68654 -0.0937,1.12436 0.281088,2.15502 1.218052,2.90458 z m -0.281089,-11.24356 c 0.187393,0.46849 0.468482,0.74958 0.843267,1.03066 0.374785,0.2811 0.749571,0.46848 1.218052,0.65588 0.468481,0.0937 0.936963,0.1874 1.499141,0.1874 1.030659,0 1.873926,-0.2811 2.5298,-0.93697 0.655874,-0.56217 1.03066,-1.40545 1.03066,-2.5298 0,-1.12435 -0.374786,-1.87393 -1.03066,-2.43611 -0.655874,-0.56217 -1.499141,-0.84326 -2.5298,-0.84326 -0.468481,0 -0.936963,0.0937 -1.405445,0.18739 -0.468481,0.0937 -0.843267,0.37479 -1.218052,0.65587 -0.374785,0.2811 -0.562178,0.65588 -0.74957,1.03066 -0.187393,0.37479 -0.28109,0.84327 -0.28109,1.40545 -0.187392,0.65587 -0.0937,1.12435 0.0937,1.59283 z m -12.46161,-38.60288 c 0.74957,0.56218 1.592837,0.84327 2.623497,0.84327 1.592837,0 2.717193,-0.65587 3.466764,-2.06131 0.74957,-1.40546 1.218052,-3.37308 1.311748,-6.18396 l -0.0937,-0.0937 c -0.468482,0.93696 -1.124356,1.59283 -2.061319,2.15501 -0.843268,0.56218 -1.873927,0.74957 -2.904587,0.74957 -1.124355,0 -2.061319,-0.18739 -2.904585,-0.56218 -0.8432669,-0.37478 -1.4991411,-0.84326 -2.1550154,-1.49914 -0.562178,-0.65587 -1.03066,-1.40544 -1.3117484,-2.24871 -0.2810885,-0.84326 -0.468482,-1.87392 -0.468482,-2.90458 0,-1.03066 0.1873935,-1.96762 0.468482,-2.8109 0.3747857,-0.84326 0.8432665,-1.59284 1.4054446,-2.15501 0.6558743,-0.65587 1.4054442,-1.12435 2.2487112,-1.40545 0.843268,-0.37478 1.78023,-0.46848 2.810889,-0.46848 1.03066,0 1.967623,0.1874 2.810891,0.46848 0.843266,0.2811 1.686533,0.84328 2.342407,1.59284 0.655874,0.74958 1.218053,1.78024 1.592837,3.09198 0.374786,1.31175 0.562178,2.99828 0.562178,4.96591 0,3.65415 -0.562178,6.46504 -1.780229,8.43266 -1.124356,1.96762 -2.998283,2.99828 -5.62178,2.99828 -1.780229,0 -3.27937,-0.46848 -4.4037261,-1.31174 -1.1243562,-0.84326 -1.8739266,-2.24872 -1.9676227,-4.12264 H 9.84981 c 0.374785,1.12436 0.843267,1.96762 1.499141,2.5298 z m 6.746135,-13.30487 c -0.187393,-0.56218 -0.468482,-1.12436 -0.843267,-1.49914 -0.374786,-0.37479 -0.843267,-0.84327 -1.405444,-1.03066 -0.562178,-0.28109 -1.124357,-0.37479 -1.873927,-0.37479 -0.74957,0 -1.405445,0.0937 -1.967623,0.37479 -0.562178,0.28109 -0.936964,0.65587 -1.311748,1.12435 -0.374786,0.46848 -0.562178,1.03066 -0.7495707,1.59284 -0.1873923,0.56218 -0.1873923,1.21805 -0.1873923,1.87392 0,0.56218 0.093698,1.12436 0.281089,1.68654 0.187392,0.56218 0.468481,1.03066 0.843266,1.40544 0.374786,0.37479 0.843267,0.74958 1.311749,1.03066 0.468482,0.2811 1.03066,0.37479 1.686534,0.37479 0.655874,0 1.218051,-0.0937 1.780229,-0.37479 0.562178,-0.28108 1.03066,-0.56218 1.405445,-1.03066 0.374786,-0.46848 0.655874,-0.93696 0.843267,-1.49914 0.187393,-0.56218 0.281089,-1.12435 0.281089,-1.78022 0.187392,-0.65588 0.0937,-1.31176 -0.0937,-1.87393 z M 19.875317,78.575054 V 63.39625 h -5.434386 v -2.061319 c 0.749571,0 1.405446,-0.0937 2.06132,-0.187392 0.655873,-0.0937 1.311747,-0.28109 1.873925,-0.655875 0.562178,-0.281089 1.03066,-0.74957 1.405445,-1.218052 0.374786,-0.562178 0.655874,-1.218052 0.74957,-1.967623 h 1.967623 v 21.269065 z m 7.776795,-12.836396 c 0,-0.843267 0.0937,-1.686534 0.281088,-2.436104 0.187394,-0.843267 0.374786,-1.592837 0.655875,-2.248711 0.281089,-0.749571 0.74957,-1.311749 1.218052,-1.873927 0.562178,-0.562178 1.218052,-0.936963 1.967623,-1.311749 0.74957,-0.374785 1.78023,-0.468481 2.810889,-0.468481 1.124356,0 2.061319,0.187393 2.810889,0.468481 0.749571,0.281089 1.405445,0.749571 1.967623,1.311749 0.562178,0.562178 0.936964,1.124356 1.218052,1.873927 0.281089,0.74957 0.562179,1.49914 0.655875,2.248711 0.187392,0.843266 0.281088,1.592837 0.281088,2.436104 0,0.843267 0.0937,1.686534 0.0937,2.436104 0,0.74957 0,1.592838 -0.0937,2.436105 -0.0937,0.843266 -0.0937,1.686533 -0.281088,2.436103 -0.187393,0.843268 -0.374786,1.592838 -0.655875,2.248713 -0.281088,0.655874 -0.74957,1.311748 -1.218052,1.873925 -0.562178,0.562178 -1.124355,0.936964 -1.967623,1.311749 -0.843266,0.374785 -1.686533,0.468481 -2.810889,0.468481 -1.124355,0 -2.061319,-0.187392 -2.810889,-0.468481 -0.749571,-0.281089 -1.405445,-0.749571 -1.967623,-1.311749 -0.562178,-0.562177 -0.936963,-1.124355 -1.218052,-1.873925 -0.281089,-0.749571 -0.562178,-1.499141 -0.655875,-2.248713 -0.187392,-0.843266 -0.281088,-1.592837 -0.281088,-2.436103 0,-0.843267 -0.0937,-1.686535 -0.0937,-2.436105 0.0937,-0.74957 0.0937,-1.592837 0.0937,-2.436104 z m 2.717193,5.059601 c 0.0937,1.03066 0.187392,1.873927 0.468482,2.810889 0.281089,0.843267 0.74957,1.592838 1.311749,2.248713 0.562177,0.655874 1.405444,0.936962 2.529799,0.936962 1.124356,0 1.873927,-0.281088 2.529801,-0.936962 0.655874,-0.655875 1.03066,-1.311749 1.311749,-2.248713 0.281088,-0.843266 0.468482,-1.780229 0.468482,-2.810889 0.0937,-1.030659 0.0937,-1.873927 0.0937,-2.717193 v -1.686533 c 0,-0.655875 -0.0937,-1.218053 -0.187392,-1.873927 -0.0937,-0.655874 -0.187394,-1.218052 -0.374786,-1.873926 -0.187393,-0.562179 -0.374786,-1.124357 -0.749571,-1.592837 -0.374785,-0.468482 -0.74957,-0.843268 -1.218052,-1.124357 -0.468482,-0.281088 -1.124356,-0.374784 -1.873927,-0.374784 -0.74957,0 -1.311748,0.0937 -1.873925,0.374784 -0.468482,0.281089 -0.936964,0.655875 -1.218052,1.124357 -0.374786,0.46848 -0.562178,0.936962 -0.749571,1.592837 -0.187393,0.562178 -0.281089,1.218052 -0.374786,1.873926 -0.0937,0.655874 -0.0937,1.218052 -0.187392,1.873927 v 1.686533 c 0.0937,0.843266 0.0937,1.78023 0.0937,2.717193 z"
     id="path2"
     style="fill:#019ac5;fill-opacity:1;stroke-width:0.936963" />
  <g
     id="g6"
     style="fill:#019ac5;fill-opacity:1"
     transform="matrix(0.93696316,0,0,0.93696316,7.132619,7.3658536)">
    <path
       d="M 53.5,38.2 V 21.9 h -5.9 v -2.2 c 0.8,0 1.5,-0.1 2.2,-0.2 0.7,-0.1 1.4,-0.3 2,-0.7 0.6,-0.3 1.1,-0.8 1.5,-1.3 0.4,-0.6 0.7,-1.3 0.8,-2.1 h 2.1 v 22.7 h -2.7 z m 15.6,0 V 21.9 h -5.9 v -2.2 c 0.8,0 1.5,-0.1 2.2,-0.2 0.7,-0.1 1.4,-0.3 2,-0.7 0.6,-0.3 1.1,-0.8 1.5,-1.3 0.4,-0.6 0.7,-1.3 0.8,-2.1 h 2.1 v 22.7 h -2.7 z"
       id="path4"
       style="fill:#019ac5;fill-opacity:1" />
  </g>
</svg>
